<svg width="24" height="25" viewBox="0 0 24 25" fill="none" xmlns="http://www.w3.org/2000/svg">
<path d="M11.9296 7.29158C9.05769 7.29158 6.72119 9.62808 6.72119 12.5C6.72119 15.3719 9.05769 17.7084 11.9296 17.7084C14.8013 17.7084 17.1378 15.3719 17.1378 12.5C17.1378 9.62808 14.8013 7.29158 11.9296 7.29158ZM11.9296 16.1459C9.91905 16.1459 8.28369 14.5103 8.28369 12.5C8.28369 10.4896 9.91905 8.85408 11.9296 8.85408C13.9399 8.85408 15.5753 10.4896 15.5753 12.5C15.5753 14.5103 13.9399 16.1459 11.9296 16.1459Z" fill="#1C134F"/>
<path d="M13.6618 0H10.1971C9.36376 0 8.62733 0.59166 8.44614 1.40724L8.00764 3.35732C7.29295 3.66039 6.61165 4.05617 5.97211 4.53949L4.07316 3.93963C3.25853 3.68652 2.37314 4.03233 1.96477 4.76151L0.23786 7.74784C-0.175844 8.48751 -0.0362262 9.39789 0.572218 9.97086L2.04393 11.3239C1.9993 11.7208 1.97736 12.1145 1.97736 12.5C1.97736 12.8855 1.9993 13.2792 2.04297 13.6761L0.579466 15.0229C-0.0362262 15.6021 -0.176798 16.5125 0.232519 17.2426L1.97011 20.2478C2.37314 20.9688 3.26063 21.3114 4.0701 21.0625L5.97211 20.4615C6.61165 20.9448 7.29295 21.3406 8.00764 21.6438L8.44709 23.5958C8.62733 24.4083 9.36376 25 10.1971 25H13.6618C14.4951 25 15.2315 24.4083 15.4127 23.5928L15.8512 21.6427C16.5659 21.3396 17.2472 20.9438 17.8867 20.4605L19.7857 21.0604C20.6024 21.3114 21.4857 20.9677 21.8941 20.2385L23.6212 17.2522C24.0347 16.5125 23.8951 15.6021 23.2866 15.0291L21.8149 13.6761C21.8586 13.2792 21.8805 12.8843 21.8805 12.5C21.8805 12.1157 21.8586 11.7208 21.8149 11.3239L23.2794 9.9781C23.2815 9.97601 23.2836 9.97391 23.2866 9.97181C23.8951 9.39903 24.0357 8.48846 23.6263 7.75833L21.8887 4.75311C21.4857 4.03233 20.6003 3.68748 19.7878 3.93963L17.8856 4.54063C17.2461 4.05731 16.5648 3.66154 15.8503 3.35827L15.4106 1.40629C15.2315 0.59166 14.4951 0 13.6618 0ZM6.13157 6.18858C6.31067 6.18858 6.48672 6.12717 6.62843 6.01044C7.34407 5.42183 8.12417 4.96769 8.95025 4.66347C9.19916 4.57191 9.3836 4.36039 9.44196 4.10213L9.97221 1.74789C9.99605 1.63956 10.0908 1.5625 10.1982 1.5625H13.6627C13.7701 1.5625 13.8649 1.63956 13.8878 1.7458L14.419 4.10213C14.4774 4.36039 14.6618 4.57191 14.9107 4.66347C15.7356 4.96769 16.5169 5.42183 17.2325 6.01044C17.4368 6.17924 17.7117 6.23341 17.965 6.15311L20.2576 5.42908C20.3669 5.39474 20.4836 5.43537 20.5336 5.52502L22.2712 8.53024C22.3232 8.62293 22.3044 8.74996 22.2212 8.83121L20.4628 10.4479C20.2721 10.623 20.1805 10.8824 20.2191 11.1385C20.2877 11.5999 20.3222 12.0583 20.3222 12.501C20.3222 12.9438 20.2877 13.4022 20.2191 13.8636C20.1805 14.1197 20.2721 14.3782 20.4628 14.5542L22.2252 16.1751C22.3044 16.2489 22.3232 16.3782 22.2658 16.4812L20.5387 19.4677C20.4827 19.5667 20.3638 19.6062 20.2555 19.5719L17.9659 18.849C17.7138 18.7687 17.4389 18.8229 17.2337 18.9917C16.518 19.5803 15.7377 20.0344 14.9117 20.3386C14.6628 20.4302 14.4783 20.6417 14.4201 20.9L13.8899 23.2542C13.8638 23.3604 13.769 23.4375 13.6618 23.4375H10.1971C10.0899 23.4375 9.99509 23.3604 9.97221 23.2542L9.44082 20.8979C9.38264 20.6396 9.1982 20.4292 8.94929 20.3365C8.12417 20.0323 7.34292 19.5782 6.62843 18.9896C6.4232 18.8208 6.14606 18.7677 5.8962 18.8469L3.60338 19.5709C3.49618 19.6041 3.37736 19.5646 3.32738 19.475L1.58979 16.4709C1.53772 16.3771 1.5566 16.2479 1.643 16.1667L3.39929 14.5531C3.58983 14.3782 3.68158 14.1188 3.64305 13.8624C3.57419 13.401 3.53986 12.9427 3.53986 12.5C3.53986 12.0573 3.57419 11.599 3.64305 11.1376C3.68158 10.8812 3.58983 10.623 3.39929 10.4469L1.63671 8.82607C1.55755 8.75206 1.53886 8.62293 1.59608 8.51974L3.32319 5.53341C3.37831 5.43442 3.49714 5.39589 3.60643 5.42908L5.8962 6.15215C5.97326 6.17714 6.05241 6.18858 6.13157 6.18858Z" fill="#1C134F"/>
</svg>
