<svg xmlns="http://www.w3.org/2000/svg" viewBox="0 0 24 24" fill="none">
  <path
    d="M12 2.5c-5.247 0-9.5 4.253-9.5 9.5S6.753 21.5 12 21.5s9.5-4.253 9.5-9.5c0-.39-.025-.774-.073-1.151-.731.094-1.49-.118-2.063-.69a2.25 2.25 0 0 1-.61-2.173 2.25 2.25 0 0 1-2.124-.59 2.25 2.25 0 0 1-.59-2.124 2.25 2.25 0 0 1-2.173-.61 2.25 2.25 0 0 1-.64-1.702A9.54 9.54 0 0 0 12 2.5Z"
    stroke="#d4a84b"
    stroke-width="1.8"
    stroke-linecap="round"
    stroke-linejoin="round"
  />
  <circle cx="9" cy="10" r="1.1" fill="#d4a84b" />
  <circle cx="14.2" cy="9.2" r="1.1" fill="#d4a84b" />
  <circle cx="12.7" cy="13.3" r="1.1" fill="#d4a84b" />
  <circle cx="8.7" cy="14.6" r="1.1" fill="#d4a84b" />
</svg>
