<svg width="19" height="24" viewBox="0 0 19 24" fill="none" xmlns="http://www.w3.org/2000/svg">
<path d="M17.4749 4.98131L12.9551 0.705281C12.4743 0.250453 11.8451 0 11.1833 0H2.57812C1.15655 0 0 1.15655 0 2.57812V21.4219C0 22.8435 1.15655 24 2.57812 24H15.7031C17.1247 24 18.2812 22.8435 18.2812 21.4219V6.85416C18.2812 6.14873 17.9873 5.46609 17.4749 4.98131ZM16.1091 5.625H12.6094C12.4801 5.625 12.375 5.51986 12.375 5.39062V2.09231L16.1091 5.625ZM15.7031 22.5938H2.57812C1.93195 22.5938 1.40625 22.068 1.40625 21.4219V2.57812C1.40625 1.93195 1.93195 1.40625 2.57812 1.40625H10.9688V5.39062C10.9688 6.29527 11.7047 7.03125 12.6094 7.03125H16.875V21.4219C16.875 22.068 16.3493 22.5938 15.7031 22.5938Z" fill="#1C134F"/>
<path d="M14.1562 9.375H3.84375C3.45544 9.375 3.14062 9.68981 3.14062 10.0781C3.14062 10.4664 3.45544 10.7812 3.84375 10.7812H14.1562C14.5446 10.7812 14.8594 10.4664 14.8594 10.0781C14.8594 9.68981 14.5446 9.375 14.1562 9.375Z" fill="#1C134F"/>
<path d="M14.1562 13.125H3.84375C3.45544 13.125 3.14062 13.4398 3.14062 13.8281C3.14062 14.2164 3.45544 14.5312 3.84375 14.5312H14.1562C14.5446 14.5312 14.8594 14.2164 14.8594 13.8281C14.8594 13.4398 14.5446 13.125 14.1562 13.125Z" fill="#1C134F"/>
<path d="M7.2525 16.875H3.84375C3.45544 16.875 3.14062 17.1898 3.14062 17.5781C3.14062 17.9664 3.45544 18.2812 3.84375 18.2812H7.2525C7.64081 18.2812 7.95562 17.9664 7.95562 17.5781C7.95562 17.1898 7.64081 16.875 7.2525 16.875Z" fill="#1C134F"/>
</svg>
