<svg width="38" height="47" viewBox="0 0 38 47" fill="none" xmlns="http://www.w3.org/2000/svg">
<path d="M11.5069 6.19464C13.4201 4.27363 15.7671 3.31529 18.5458 3.31529C21.3269 3.31529 23.671 4.27363 25.5837 6.19464C27.497 8.11564 28.4553 10.5841 28.4553 13.5972C28.4553 15.5578 27.6441 17.8028 26.0184 20.3326C25.2428 21.5434 24.2667 22.8194 23.093 24.1635C22.4829 24.8548 21.8188 25.565 21.1043 26.293C20.8134 26.5924 20.5124 26.8912 20.2037 27.1939V16.1391C20.4436 15.9952 20.6663 15.8219 20.8774 15.6099C21.0596 15.427 21.2135 15.2324 21.3438 15.0287C21.6775 14.5097 21.8477 13.9245 21.8477 13.2689C21.8477 12.8127 21.7664 12.3893 21.6049 11.9982C21.4433 11.6076 21.2014 11.2504 20.8783 10.9255V10.923C20.862 10.9066 20.8461 10.8931 20.8302 10.8777L20.8105 10.8579C20.8057 10.8555 20.8023 10.8521 20.7985 10.8487C20.7927 10.8434 20.7874 10.8381 20.7812 10.8328C20.773 10.8241 20.7639 10.8149 20.7562 10.8077C20.7317 10.7859 20.71 10.7647 20.6845 10.743C20.6812 10.7352 20.6735 10.7319 20.6706 10.7285C20.6557 10.7174 20.6451 10.7068 20.6307 10.6957C20.5768 10.6527 20.523 10.6097 20.4696 10.5701C20.4441 10.5518 20.4153 10.5334 20.3903 10.5156L20.3898 10.5151C20.3783 10.5079 20.3672 10.4992 20.3557 10.491L20.3542 10.4905C20.3258 10.4721 20.297 10.4509 20.2648 10.4325C20.2537 10.4219 20.2431 10.4147 20.2321 10.4108C20.1965 10.3867 20.1575 10.3669 20.1186 10.3466C20.1172 10.3456 20.1157 10.3447 20.1138 10.3437C20.1085 10.3398 20.1027 10.3369 20.096 10.3316C20.0816 10.321 20.0638 10.3138 20.0494 10.307C20.0349 10.2959 20.0167 10.2887 19.9989 10.278C19.8628 10.2129 19.719 10.1516 19.5719 10.1052C19.5536 10.098 19.5325 10.0941 19.5108 10.0873C19.4704 10.0738 19.4281 10.0647 19.3863 10.0545C19.3733 10.0511 19.3603 10.0478 19.3498 10.0439C19.3348 10.04 19.3171 10.0367 19.3026 10.0328C19.2786 10.0265 19.2545 10.0251 19.23 10.0198C19.2055 10.0144 19.18 10.0106 19.1545 10.0062C19.118 9.99996 19.081 9.9903 19.0444 9.98644C18.9761 9.97534 18.9083 9.96761 18.8396 9.96086C18.8107 9.96086 18.7785 9.95699 18.7468 9.95699C18.6819 9.95361 18.6136 9.94975 18.5458 9.94975C18.477 9.94975 18.4088 9.95361 18.3443 9.95699C18.3121 9.95699 18.2799 9.96086 18.251 9.96086C18.1833 9.96761 18.1145 9.97534 18.0467 9.98644C18.0111 9.9903 17.976 9.99948 17.9409 10.0053C17.9121 10.0101 17.8837 10.0149 17.8548 10.0207C17.8322 10.0255 17.8101 10.027 17.788 10.0328C17.7736 10.0367 17.7558 10.04 17.7414 10.0439C17.7318 10.0468 17.7221 10.0497 17.7101 10.0531C17.6668 10.0642 17.6226 10.0733 17.5798 10.0873C17.5587 10.0941 17.537 10.098 17.5187 10.1052C17.3716 10.1516 17.2278 10.2129 17.0918 10.278C17.074 10.2887 17.0557 10.2959 17.0418 10.307C17.0283 10.3133 17.0129 10.3205 16.9994 10.3292C16.9836 10.3384 16.9677 10.3485 16.9514 10.3582C16.9201 10.3746 16.8874 10.391 16.8586 10.4108C16.8475 10.4147 16.8369 10.4219 16.8263 10.4325C16.8028 10.4461 16.7826 10.4605 16.7614 10.4745C16.7359 10.491 16.7109 10.5083 16.6859 10.5257C16.6648 10.5402 16.6422 10.5552 16.6215 10.5701C16.5677 10.6097 16.5138 10.6527 16.4604 10.6957C16.4455 10.7068 16.4349 10.7174 16.4205 10.7285C16.4172 10.7319 16.4095 10.7352 16.4061 10.743C16.3811 10.7647 16.3595 10.7859 16.3345 10.8077L16.3094 10.8328C16.3037 10.8381 16.2979 10.8434 16.2921 10.8487C16.2883 10.8521 16.2854 10.8555 16.2806 10.8579L16.2609 10.8777C16.245 10.8931 16.2282 10.9066 16.2123 10.923V10.924L16.2118 10.925C15.5656 11.5738 15.243 12.3555 15.243 13.267C15.243 14.179 15.5656 14.9611 16.2118 15.6099C16.4239 15.8224 16.646 15.9957 16.8864 16.1396L16.8869 16.1405V16.1415H16.8879C16.8889 16.142 16.8898 16.1415 16.8898 16.1429L16.8908 16.1434V27.1978L16.8869 27.1939C16.5787 26.8912 16.2772 26.5924 15.9858 26.293C15.2718 25.565 14.6078 24.8548 13.9981 24.1635C12.8239 22.8194 11.8478 21.5434 11.0727 20.3326C9.44701 17.8028 8.63537 15.5578 8.63537 13.5972C8.63537 10.5841 9.59367 8.11564 11.5069 6.19464ZM11.2487 26.0299C11.8517 26.7362 12.5046 27.4498 13.2081 28.1778C14.3929 29.4104 15.7137 30.6714 17.1706 31.9658C17.6159 32.3617 18.0751 32.7619 18.5458 33.1617C19.0156 32.7619 19.4748 32.3617 19.92 31.9658C21.3769 30.6714 22.6978 29.4104 23.8826 28.1778C24.586 27.4498 25.2395 26.7362 25.8419 26.0299C26.8507 24.8587 27.7302 23.7203 28.4769 22.6137C30.6628 19.3665 31.7571 16.3612 31.7571 13.5972C31.7571 9.4491 30.4296 6.1478 27.773 3.68656C25.1173 1.22869 22.0414 0 18.5458 0C15.0497 0 11.9738 1.22869 9.31767 3.68656C6.66155 6.1478 5.3335 9.4491 5.3335 13.5972C5.3335 16.3612 6.42787 19.3665 8.61373 22.6137C9.36046 23.7203 10.2399 24.8587 11.2487 26.0299Z" fill="#4B32DA"/>
<path d="M36.1225 30.8215C35.4763 30.1726 34.6973 29.8482 33.789 29.8482C33.1755 29.8482 32.6221 30.0003 32.1268 30.2967L32.1239 30.2933L28.2369 27.6554C28.1609 27.7418 28.0892 27.8287 28.0142 27.9147C27.4901 28.5312 26.9227 29.1583 26.2948 29.8178L30.5155 32.6827L30.5223 32.687C30.5016 32.8425 30.4872 33.0003 30.4872 33.164C30.4872 33.3272 30.5016 33.485 30.5223 33.64L20.2079 40.6433C20.2079 40.6424 20.2079 40.6399 20.205 40.6399C19.7132 40.3445 19.1607 40.1967 18.5467 40.1967C17.9365 40.1967 17.3835 40.3445 16.8921 40.6399C16.8883 40.6361 16.8849 40.6438 16.8849 40.6438L16.8844 40.6443L16.8835 40.6438L6.57586 33.6448H6.57201L6.56865 33.6429C6.5898 33.487 6.60375 33.3281 6.60375 33.164C6.60375 33.0003 6.5898 32.8425 6.56913 32.687L6.57586 32.6827L10.7928 29.8178C10.1682 29.1583 9.60125 28.5312 9.06609 27.9079C8.99493 27.8249 8.92328 27.738 8.85116 27.6554L4.96748 30.2933L4.96411 30.2967C4.46933 30.0003 3.91638 29.8482 3.30187 29.8482C2.39406 29.8482 1.61463 30.1726 0.969357 30.8215C0.323119 31.4704 0 32.252 0 33.164C0 34.0755 0.323119 34.8576 0.969357 35.5065C1.18092 35.7194 1.40307 35.8922 1.64396 36.0361C1.64396 36.0361 1.64733 36.0361 1.64733 36.04C1.73677 36.0902 1.83053 36.1409 1.92718 36.1872C2.34358 36.3822 2.80277 36.4793 3.30187 36.4793C3.8005 36.4793 4.26017 36.3822 4.67657 36.1872C4.7737 36.1409 4.87035 36.0902 4.95978 36.0361C4.96171 36.0351 4.96363 36.0337 4.96555 36.0322L4.96748 36.0342L15.276 43.0326H15.2736C15.2558 43.1876 15.2448 43.346 15.2448 43.512C15.2448 44.424 15.5679 45.2057 16.2141 45.8545C16.4257 46.0669 16.6478 46.2403 16.8883 46.3841C16.8883 46.3841 16.8921 46.3841 16.8921 46.388C16.9815 46.4387 17.0753 46.4889 17.172 46.5357C17.5884 46.7303 18.0476 46.8273 18.5467 46.8273C19.0453 46.8273 19.505 46.7303 19.9214 46.5357C20.0185 46.4889 20.1151 46.4387 20.205 46.3841C20.4455 46.2403 20.6676 46.0669 20.8797 45.8545C21.5259 45.2057 21.8485 44.424 21.8485 43.512C21.8485 43.3469 21.838 43.1852 21.8168 43.0312L31.8542 36.2157V36.2181L32.1239 36.0342V36.0327L32.1254 36.0317C32.1268 36.0332 32.1287 36.0346 32.1311 36.0361C32.1311 36.0361 32.135 36.0361 32.135 36.04C32.2249 36.0902 32.3177 36.1409 32.4148 36.1872C32.8307 36.3822 33.2904 36.4793 33.789 36.4793C34.2886 36.4793 34.7478 36.3822 35.1642 36.1872C35.2609 36.1409 35.358 36.0902 35.4479 36.0361C35.6883 35.8922 35.9109 35.7194 36.1225 35.5065C36.7687 34.8576 37.0919 34.0755 37.0919 33.164C37.0919 32.252 36.7687 31.4704 36.1225 30.8215Z" fill="#4B32DA"/>
</svg>
